<?xml version="1.0" encoding="UTF-8"?>
<!DOCTYPE svg PUBLIC "-//W3C//DTD SVG 1.1//EN" "http://www.w3.org/Graphics/SVG/1.1/DTD/svg11.dtd">
<!-- Creator: CorelDRAW 2021.5 -->
<svg xmlns="http://www.w3.org/2000/svg" xml:space="preserve" width="13.5466mm" height="13.5466mm" version="1.1" style="shape-rendering:geometricPrecision; text-rendering:geometricPrecision; image-rendering:optimizeQuality; fill-rule:evenodd; clip-rule:evenodd"
viewBox="0 0 1354.66 1354.66"
 xmlns:xlink="http://www.w3.org/1999/xlink"
 xmlns:xodm="http://www.corel.com/coreldraw/odm/2003">
 <defs>
  <style type="text/css">
   <![CDATA[
    .fil0 {fill:black}
   ]]>
  </style>
 </defs>
 <g id="Layer_x0020_1">
  <metadata id="CorelCorpID_0Corel-Layer"/>
  <g id="_1917113668352">
   <path class="fil0" d="M524.53 685.24c-24.07,4.52 -18.45,28.37 -18.47,53.25 -0.05,68.16 -10.84,130.4 52.07,162.64 38.07,19.52 84.26,9.51 109.28,-14.21 12.26,-11.61 20.84,-21.58 27.56,-43.75 5.65,-18.65 3.74,-48.23 3.7,-69.08 -0.13,-67.95 14.25,-97.64 -52.56,-88.96 -23.5,3.06 -18.66,29.91 -18.63,52.05 0.04,24.17 -0.09,48.35 0.07,72.52 0.2,32.27 -27.35,33.63 -39.05,25.45 -16.42,-11.48 -11.56,-37.66 -11.54,-61.06 0.02,-19.66 2.04,-52.98 -0.16,-71.02 -1.14,-9.31 -9.04,-16.33 -17.44,-17.82 -5.04,-0.89 -30.09,-0.89 -34.83,-0.01z"/>
   <path class="fil0" d="M378.25 685.25c-39.07,5.09 -66.64,32.03 -77.63,64.36 -6.4,18.83 -6.84,113.68 -5.07,137.94 1.8,24.72 26.5,23.2 49.53,21.55 25.47,-1.82 21.15,-27.49 21.18,-50.63 0.03,-23.74 0.08,-47.49 0.03,-71.23 -0.07,-34.63 28.39,-32.52 37.46,-27.09 17.28,10.34 12.02,31.49 12.01,57.45 0,22.47 -1.37,49.33 0.07,71.27 0.69,10.45 7.32,17.76 16.34,19.65 5.01,1.05 29.97,1.08 35.46,0.41 23.75,-2.88 19.23,-29.79 19.28,-51.78 0.09,-41.76 5.83,-94.97 -13.43,-127.15 -15.64,-26.13 -48.8,-50.81 -95.23,-44.75z"/>
   <path class="fil0" d="M381.99 443.88c-39.83,4.48 -68.22,31.21 -78.87,62.93 -9.07,26.98 -5.69,103.71 -5.52,136.83 0.13,27.02 22.07,24.46 46.11,24.17 28.02,-0.34 24.58,-22.72 24.57,-46.65 -0.01,-23.73 0.09,-47.47 -0.01,-71.2 -0.06,-13.56 0.03,-20.7 8.33,-27.7 6.56,-5.54 16.54,-8.19 26.55,-4.05 19.49,8.05 14.16,33.42 14.22,55.48 0.06,23.45 -0.74,47.97 0.11,71.27 0.93,25.74 24.56,24.04 48.86,22.64 27.39,-1.58 21.99,-28.82 21.99,-49.08 0.01,-41.91 5.83,-94.03 -12.55,-128.16 -14.4,-26.74 -47.86,-51.65 -93.79,-46.48z"/>
   <path class="fil0" d="M632.83 512.9c12.32,28.25 -35.45,1.53 -51.97,26.41 -6.57,9.89 -7.05,22.37 -0.48,32.35 5.77,8.77 14.99,13.32 29.6,13.29 32.77,-0.07 46.91,2.52 68.31,-15.46 51.21,-43.01 2.52,-134.47 -84.13,-125.21 -45.02,4.81 -78.79,39.63 -86.22,82.6 -3.47,20.06 -2.03,59.08 4.7,76.84 8.05,21.27 22.01,36.85 37.5,47 20.81,13.64 37.29,16.83 66.44,16.46 29.04,-0.36 51.54,-2.39 63.25,-21.04 6.24,-9.93 7.65,-20.92 1.53,-31.75 -16.15,-28.65 -69.72,2.16 -103.05,-23.51 -29.56,-22.75 -18.91,-68.13 14.51,-77.84 8.17,-2.37 32.49,-2.2 40.01,-0.14z"/>
   <path class="fil0" d="M976.08 662.44c-13.23,2.31 -17.02,11.64 -17,25.94l-0.3 130.54c0.17,29.46 9.59,47.79 23.95,63.62 9.63,10.61 36.06,30.59 60.93,26.15 13.86,-2.47 15.99,-11.34 15.96,-26.48 -0.02,-10.41 2.07,-33.73 -3.19,-40.36 -5.67,-7.12 -19.14,-6.02 -24.18,-19.31 -3.47,-9.13 -1.7,-114.74 -1.61,-128.87 0.08,-14.56 -1.63,-25.31 -13.6,-30.07 -5.25,-2.09 -34.56,-2.27 -40.96,-1.16z"/>
   <path class="fil0" d="M792.77 686.22c-53.26,8.94 -75.07,52.48 -75.25,102.37 -0.11,29.45 -0.08,58.89 -0.13,88.34 -0.02,14.92 1.38,26.25 13.53,30.69 6.7,2.45 36.27,2.46 43.05,0.18 12.73,-4.28 14.45,-13.85 14.51,-29.55l0.11 -88.36c0,-15.31 2.11,-25.7 12.92,-31.2 12.12,-6.18 22.78,1.05 35.77,-7.77 10.81,-7.34 11.73,-17.78 11.72,-33.53 -0.02,-32.61 -25.17,-36.39 -56.23,-31.17z"/>
   <path class="fil0" d="M881.2 757.48c-18.02,6.22 -15.11,25.42 -15.06,40.34 0.07,18.9 0.05,37.8 0.06,56.69 0,29.99 -6.71,54.81 28.55,54.7 36.56,-0.11 43.05,2.19 43.06,-41.51 0.01,-18.9 -0.06,-37.8 -0.1,-56.69 -0.03,-16.08 2.84,-38.54 -6.64,-48.18 -7.13,-7.26 -37.52,-9.6 -49.87,-5.35z"/>
   <path class="fil0" d="M874.52 645.31c10.3,2.1 20.15,-7.63 26.47,-12.62 74.32,-58.73 35.05,-180.9 -62.29,-188.89 -6.06,-0.5 -11.74,0.36 -12.01,5.99 -0.23,5.03 6.19,8.62 9.31,11.29 41.96,35.84 57.7,95.67 45.48,150.76 -1.99,8.95 -9.06,26.16 -6.96,33.47z"/>
   <path class="fil0" d="M727.52 500.01c-11.83,10.44 11,40.34 16.49,47.73 23.07,31.01 72.62,66.29 101.9,93.29 2.6,2.41 6.2,8.19 11.96,4.14 10.71,-7.52 -3.06,-49.46 -6.6,-58.28 -9.57,-23.85 -26.83,-44.73 -47.53,-59.32 -15.87,-11.18 -65.85,-36.7 -76.22,-27.56z"/>
   <path class="fil0" d="M714.65 535.32c-2.78,1.29 -3.83,-0.47 -5.46,10.87 -0.77,5.32 -1.21,10.25 -1.19,15.64 0.16,44.06 26.68,82.59 67.67,98.1 16.72,6.33 96.3,20.1 46.74,-20.5 -6.89,-5.64 -17.02,-16.13 -26.72,-23.36 -6.01,-4.48 -12.12,-9.92 -18.03,-14.99 -4,-3.44 -5.2,-4.38 -8.61,-7.18 -11.24,-9.21 -30.52,-30.33 -39.64,-43.38 -3,-4.3 -8.76,-17.98 -14.76,-15.2z"/>
   <path class="fil0" d="M782.74 451.79c-14,2.74 -41.94,14.36 -45.16,22.84 -3.91,10.29 8.9,11.73 16.77,14.13 8.23,2.51 17.91,5.83 25.06,9.16 34.63,16.15 55.41,34.51 73.27,62.48 3.84,6.03 8.06,17.42 11.14,21.89 15.61,22.71 14.26,-65.79 -35.17,-109.93 -15.62,-13.96 -25.17,-24.64 -45.91,-20.57z"/>
   <path class="fil0" d="M896.23 661.49c-54.13,9.15 -38.2,89.74 14.89,79 19.96,-4.04 35.98,-22.95 31.71,-47.32 -3.54,-20.19 -22.69,-35.72 -46.6,-31.68z"/>
  </g>
 </g>
</svg>
