<svg width="65" height="40" viewBox="0 0 65 40" fill="none" xmlns="http://www.w3.org/2000/svg">
<path fill-rule="evenodd" clip-rule="evenodd" d="M19.5148 20.5477C17.4714 20.9314 17.9485 22.9561 17.9468 25.0682C17.9426 30.8545 17.0266 36.1381 22.3672 38.8751C25.599 40.5322 29.5202 39.6824 31.6442 37.6687C32.685 36.6831 33.4133 35.8368 33.9838 33.9547C34.4634 32.3715 34.3013 29.8604 34.2979 28.0904C34.2869 22.3219 35.5076 19.8015 29.836 20.5384C27.841 20.7981 28.2519 23.0775 28.2544 24.957C28.2578 27.0088 28.2468 29.0615 28.2604 31.1134C28.2774 33.8528 25.9386 33.9683 24.9453 33.2739C23.5514 32.2993 23.964 30.0768 23.9657 28.0904C23.9674 26.4214 24.1389 23.5928 23.9521 22.0613C23.8553 21.271 23.1847 20.675 22.4716 20.5485C22.0437 20.473 19.9172 20.473 19.5148 20.5477Z" fill="#F8F8F8"/>
<path fill-rule="evenodd" clip-rule="evenodd" d="M7.09678 20.5486C3.78004 20.9807 1.43957 23.2677 0.506602 26.0123C-0.0367081 27.6108 -0.0740613 35.6628 0.0761978 37.7223C0.229004 39.8208 2.32584 39.6918 4.28091 39.5517C6.44311 39.3972 6.07638 37.218 6.07892 35.2536C6.08147 33.2383 6.08571 31.2221 6.08147 29.2067C6.07553 26.2669 8.49156 26.4461 9.26153 26.907C10.7285 27.7848 10.2819 29.5803 10.2811 31.7841C10.2811 33.6916 10.1648 35.9718 10.287 37.8343C10.3456 38.7215 10.9084 39.342 11.6742 39.5025C12.0995 39.5916 14.2184 39.5942 14.6844 39.5373C16.7006 39.2928 16.3169 37.0083 16.3212 35.1416C16.3288 31.5965 16.8161 27.0794 15.1811 24.3475C13.8533 22.1293 11.0383 20.0342 7.09678 20.5486Z" fill="#F8F8F8"/>
<path fill-rule="evenodd" clip-rule="evenodd" d="M7.41427 0.0581984C4.03302 0.438515 1.62293 2.70768 0.71883 5.40046C-0.0511417 7.69085 0.235795 14.2046 0.250226 17.0163C0.261262 19.31 2.12379 19.0927 4.1646 19.0681C6.54328 19.0392 6.25125 17.1393 6.2504 15.1079C6.24955 13.0934 6.25804 11.078 6.24955 9.06356C6.24446 7.91242 6.2521 7.30629 6.95671 6.71205C7.5136 6.24174 8.36082 6.01678 9.21059 6.36823C10.8651 7.05161 10.4127 9.20533 10.4178 11.078C10.4229 13.0688 10.3549 15.1503 10.4271 17.1283C10.506 19.3134 12.512 19.1691 14.5749 19.0503C16.9001 18.9161 16.4417 16.6037 16.4417 14.8838C16.4426 11.3259 16.9366 6.90135 15.3763 4.00398C14.1539 1.73397 11.3134 -0.380694 7.41427 0.0581984Z" fill="#F8F8F8"/>
<path fill-rule="evenodd" clip-rule="evenodd" d="M28.7086 5.91742C29.7545 8.31563 25.6992 6.04731 24.2968 8.15942C23.739 8.99901 23.6983 10.0585 24.256 10.9057C24.7459 11.6502 25.5286 12.0364 26.7688 12.0339C29.5508 12.028 30.7511 12.2478 32.5678 10.7215C36.9152 7.07026 32.7818 -0.693978 25.4258 0.0921231C21.604 0.500454 18.7372 3.4564 18.1064 7.10421C17.8119 8.80715 17.9341 12.1196 18.5054 13.6273C19.1888 15.433 20.3739 16.7556 21.6889 17.6173C23.4555 18.7752 24.8545 19.046 27.3291 19.0146C29.7944 18.984 31.7045 18.8117 32.6986 17.2285C33.2283 16.3855 33.348 15.4525 32.8284 14.5331C31.4574 12.101 26.9098 14.7165 24.0803 12.5373C21.5709 10.606 22.475 6.75361 25.3121 5.92931C26.0057 5.72811 28.0702 5.74255 28.7086 5.91742Z" fill="#F8F8F8"/>
<path fill-rule="evenodd" clip-rule="evenodd" d="M57.8478 18.6123C56.7247 18.8084 56.403 19.6005 56.4047 20.8144L56.3792 31.8963C56.3936 34.3972 57.1933 35.9533 58.4124 37.2971C59.2299 38.1978 61.4736 39.894 63.5849 39.517C64.7615 39.3073 64.9423 38.5544 64.9397 37.2691C64.938 36.3854 65.1155 34.4057 64.6689 33.8428C64.1876 33.2384 63.0441 33.3318 62.6162 32.2036C62.3217 31.4285 62.4719 22.463 62.4796 21.2635C62.4864 20.0275 62.3412 19.1149 61.325 18.7108C60.8793 18.5334 58.3912 18.5181 57.8478 18.6123Z" fill="#F8F8F8"/>
<path fill-rule="evenodd" clip-rule="evenodd" d="M42.2863 20.6311C37.7649 21.39 35.9134 25.0862 35.8981 29.3215C35.8888 31.8216 35.8913 34.3208 35.8871 36.8209C35.8854 38.0875 36.0043 39.0493 37.0357 39.4262C37.6045 39.6342 40.1147 39.635 40.6903 39.4415C41.771 39.0781 41.917 38.2657 41.9221 36.9329L41.9314 29.4318C41.9314 28.1322 42.1105 27.2501 43.0282 26.7832C44.0571 26.2586 44.9621 26.8723 46.0648 26.1236C46.9825 25.5005 47.0606 24.6142 47.0598 23.2772C47.0581 20.5088 44.923 20.1879 42.2863 20.6311Z" fill="#F8F8F8"/>
<path fill-rule="evenodd" clip-rule="evenodd" d="M49.7933 26.6803C48.2635 27.2083 48.5106 28.8383 48.5148 30.1049C48.5207 31.7093 48.5191 33.3138 48.5199 34.9174C48.5199 37.4633 47.9503 39.5703 50.9436 39.561C54.0472 39.5517 54.5982 39.7469 54.599 36.0371C54.5999 34.4327 54.5939 32.8282 54.5905 31.2246C54.588 29.8595 54.8316 27.9528 54.0269 27.1345C53.4216 26.5182 50.8417 26.3195 49.7933 26.6803Z" fill="#F8F8F8"/>
<path fill-rule="evenodd" clip-rule="evenodd" d="M49.2262 17.158C50.1006 17.3362 50.9368 16.5102 51.4733 16.0866C57.7825 11.1009 54.4488 0.729642 46.1854 0.0513541C45.6709 0.00890798 45.1887 0.081917 45.1658 0.55986C45.1463 0.986867 45.6913 1.29163 45.9562 1.51829C49.5182 4.56082 50.8544 9.63993 49.817 14.3166C49.6481 15.0764 49.0479 16.5374 49.2262 17.158Z" fill="#F8F8F8"/>
<path fill-rule="evenodd" clip-rule="evenodd" d="M36.7471 4.82309C35.7428 5.70937 37.6809 8.24764 38.1469 8.875C40.1054 11.5075 44.3118 14.5025 46.7974 16.7946C47.0182 16.9992 47.3238 17.4898 47.8128 17.146C48.722 16.5076 47.553 12.9473 47.2525 12.1985C46.4401 10.1738 44.9748 8.4013 43.2175 7.16272C41.8703 6.21363 37.6274 4.04718 36.7471 4.82309Z" fill="#F8F8F8"/>
<path fill-rule="evenodd" clip-rule="evenodd" d="M35.6545 7.82067C35.4185 7.93018 35.3294 7.78077 35.191 8.74345C35.1256 9.19508 35.0883 9.6136 35.09 10.0712C35.1035 13.8115 37.3549 17.0824 40.8346 18.3991C42.254 18.9365 49.0097 20.1054 44.8025 16.6588C44.2176 16.18 43.3576 15.2895 42.5342 14.6757C42.024 14.2954 41.5053 13.8336 41.0035 13.4032C40.664 13.1112 40.5621 13.0314 40.2726 12.7937C39.3184 12.0118 37.6817 10.2189 36.9075 9.11104C36.6528 8.746 36.1638 7.58467 35.6545 7.82067Z" fill="#F8F8F8"/>
<path fill-rule="evenodd" clip-rule="evenodd" d="M41.4348 0.729809C40.2463 0.962414 37.8744 1.94886 37.6011 2.66875C37.2691 3.54229 38.3566 3.66453 39.0247 3.86827C39.7234 4.08135 40.5451 4.36319 41.1521 4.64588C44.0919 6.01689 45.856 7.57551 47.3722 9.94995C47.6981 10.4618 48.0564 11.4288 48.3179 11.8082C49.643 13.7361 49.5284 6.22318 45.3322 2.47604C44.0062 1.29094 43.1955 0.384298 41.4348 0.729809Z" fill="#F8F8F8"/>
<path fill-rule="evenodd" clip-rule="evenodd" d="M51.0692 18.5316C46.474 19.3084 47.8263 26.1499 52.3333 25.2381C54.0277 24.8951 55.3877 23.2898 55.0252 21.221C54.7247 19.507 53.099 18.1887 51.0692 18.5316Z" fill="#F8F8F8"/>
</svg>
